<?xml version="1.0" encoding="UTF-8" standalone="no"?>
<!-- Created with Inkscape (http://www.inkscape.org/) -->

<svg
   xmlns:dc="http://purl.org/dc/elements/1.1/"
   xmlns:cc="http://creativecommons.org/ns#"
   xmlns:rdf="http://www.w3.org/1999/02/22-rdf-syntax-ns#"
   xmlns:svg="http://www.w3.org/2000/svg"
   xmlns="http://www.w3.org/2000/svg"
   xmlns:sodipodi="http://sodipodi.sourceforge.net/DTD/sodipodi-0.dtd"
   xmlns:inkscape="http://www.inkscape.org/namespaces/inkscape"
   width="182.70047mm"
   height="64.316483mm"
   viewBox="0 0 182.70047 64.316483"
   version="1.1"
   id="svg8"
   inkscape:version="0.92.2 (5c3e80d, 2017-08-06)"
   sodipodi:docname="APE_logo-svg.svg">
  <defs
     id="defs2" />
  <sodipodi:namedview
     id="base"
     pagecolor="#ffffff"
     bordercolor="#666666"
     borderopacity="1.0"
     inkscape:pageopacity="0.0"
     inkscape:pageshadow="2"
     inkscape:zoom="0.35"
     inkscape:cx="-157.59641"
     inkscape:cy="95.828679"
     inkscape:document-units="mm"
     inkscape:current-layer="layer1"
     showgrid="false"
     fit-margin-top="0"
     fit-margin-left="0"
     fit-margin-right="0"
     fit-margin-bottom="0"
     inkscape:window-width="1920"
     inkscape:window-height="1017"
     inkscape:window-x="1672"
     inkscape:window-y="-8"
     inkscape:window-maximized="1" />
  <metadata
     id="metadata5">
    <rdf:RDF>
      <cc:Work
         rdf:about="">
        <dc:format>image/svg+xml</dc:format>
        <dc:type
           rdf:resource="http://purl.org/dc/dcmitype/StillImage" />
        <dc:title></dc:title>
      </cc:Work>
    </rdf:RDF>
  </metadata>
  <g
     inkscape:label="Layer 1"
     inkscape:groupmode="layer"
     id="layer1"
     transform="translate(-15.239049,-109.87152)">
    <g
       id="layer1-4"
       inkscape:label="Layer 1"
       transform="translate(0.272521,22.197285)">
      <path
         id="rect4530"
         transform="scale(0.26458333)"
         d="m 71.298828,331.36719 -14.732422,2.04101 0.226563,4.91016 6.724609,-1.05859 v 31.95898 h -6.724609 v 5.06055 h 21.003906 v -5.06055 h -6.498047 z m 122.085942,16.51172 v 6.0039 22.20899 H 56.785156 v 5.89258 H 193.38477 v 76 H 56.785156 v 5.89257 H 193.38477 v 79.51367 H 56.785156 v 5.89258 H 193.38477 v 25.16992 h 5.89257 233.38086 0.86914 V 470.01953 h 126.61719 v 0.0234 h 41.43164 v -0.0234 h 145.51172 v -11.4082 h -0.0332 v -18.39844 h -12.46094 v 18.39844 h -41.10742 v -30.37305 h 23.6289 v 10.35742 h 8.90039 v -31.88281 h -9.0625 v 10.35742 h -23.46679 v -27.67383 h 40.29883 V 406.875 h 12.46093 v -28.80664 h -82.375 v 11.32812 h 11.49024 v 69.21485 h -85.76172 v -69.16211 h 18.12695 c 5.39459,0 9.54786,1.34762 12.46094,4.04492 2.91308,2.6973 4.36914,6.52721 4.36914,11.49024 0,5.28669 -1.61871,9.3877 -4.85547,12.30078 -3.23675,2.80518 -7.87602,4.20703 -13.91797,4.20703 h -9.87109 v 11.32812 h 11.32812 c 11.76021,0 20.66119,-2.37385 26.70313,-7.12109 6.14983,-4.74724 9.22461,-11.75841 9.22461,-21.03711 0,-8.84713 -3.07478,-15.48269 -9.22461,-19.90625 -6.04194,-4.42357 -14.99713,-6.63672 -26.86524,-6.63672 h -46.93359 v 11.33008 h 11.49219 v 69.16211 h -36.51758 l -25.86719,-69.19531 h 10.03516 v -11.32813 h -51.30273 v 11.32813 h 9.87109 l -25.2207,69.19531 H 433.52734 V 347.87891 Z m 5.89257,6.0039 H 427.63477 V 568.56055 H 199.27734 Z m 10.1211,9.38086 v 10.89453 183.45118 1.43945 H 417.75977 V 548.15625 363.26367 H 220.29102 Z m 10.89258,10.89453 H 406.86719 V 548.15625 H 220.29102 Z m 272.13086,15.41992 h 0.9707 l 11.81445,35.11915 H 480.2832 Z m -186.22461,10.00782 c -9.84017,0 -17.69746,2.39236 -23.57422,7.17578 -5.87677,4.78341 -8.81641,10.79561 -8.81641,18.03906 0,4.51008 0.95773,8.88436 2.87109,13.1211 2.05004,4.10006 4.98773,8.5408 8.81446,13.32421 -19.95367,7.65347 -29.92969,19.06608 -29.92969,34.23633 0,6.83345 1.70828,12.98441 5.125,18.45117 3.41672,5.46676 8.26791,9.83909 14.55469,13.11914 6.42344,3.14339 13.87222,4.71485 22.3457,4.71485 14.21357,0 26.23991,-4.50915 36.08008,-13.5293 l 9.01953,11.48047 h 30.3418 v -13.94141 h -18.2461 l -8.81445,-10.25 c 5.60343,-6.97011 9.90735,-15.51149 12.91406,-25.625 l 13.94141,-0.20507 v -13.5293 h -26.65039 c -0.95668,4.92008 -2.32487,9.83968 -4.10156,14.75976 -1.7767,4.92009 -3.89348,9.01878 -6.35352,12.29883 l -24.60156,-28.49414 c 16.94695,-7.65346 25.41992,-17.97152 25.41992,-30.95508 0,-6.83345 -2.80087,-12.57395 -8.4043,-17.2207 -5.46676,-4.64674 -12.77872,-6.9707 -21.93554,-6.9707 z m -233.693364,11.75 c -4.784819,0 -8.536067,1.18355 -11.255859,3.55078 -2.669425,2.36722 -4.005859,5.49092 -4.005859,9.36914 -10e-7,1.46063 0.252194,3.07311 0.755859,4.83594 h 6.724609 c -0.402932,-1.76283 -0.605468,-3.25019 -0.605468,-4.45899 0,-2.46796 0.681119,-4.40614 2.041015,-5.8164 1.359896,-1.41027 3.222618,-2.11524 5.589844,-2.11524 2.266493,0 3.954437,0.65336 5.0625,1.96289 1.15843,1.25917 1.738281,2.87165 1.738281,4.83594 0,2.21613 -0.655314,4.28138 -1.964844,6.19531 -1.259162,1.86356 -3.626273,4.53253 -7.101562,8.00781 l -12.617188,12.4668 -0.07617,4.83399 h 29.691407 l -0.07617,-12.91797 h -5.740235 v 7.63086 H 65.175781 l 8.763672,-8.61328 c 3.021991,-2.8709 5.363296,-5.23801 7.025391,-7.10157 1.662095,-1.86356 2.921113,-3.70243 3.777344,-5.51562 0.906597,-1.86356 1.361328,-3.80175 1.361328,-5.81641 0,-3.42492 -1.209361,-6.1713 -3.626954,-8.23633 -2.417592,-2.06502 -5.741869,-3.09765 -9.972656,-3.09765 z m 233.488284,0.55078 c 4.10007,0 7.3798,1.09259 9.83984,3.2793 2.59671,2.1867 3.89649,5.1928 3.89649,9.01953 0,4.10007 -1.4366,7.72184 -4.30664,10.86523 -2.73338,3.14339 -7.0373,6.01462 -12.91407,8.61133 -3.41672,-4.23674 -6.01432,-7.85852 -7.79101,-10.86523 -1.64003,-3.14339 -2.45899,-6.2179 -2.45899,-9.22461 0,-3.69007 1.161,-6.5613 3.48438,-8.61133 2.46004,-2.05004 5.87659,-3.07422 10.25,-3.07422 z m 170.89258,23.6543 h 31.55859 l 7.9043,23.07031 h -47.20704 z m -182.37305,26.36523 29.11133,34.64648 c -6.15011,6.69678 -13.87253,10.04493 -23.16602,10.04493 -7.24345,0 -13.12078,-2.18714 -17.63086,-6.56055 -4.51007,-4.37341 -6.76367,-9.49823 -6.76367,-15.375 0,-10.52351 6.14901,-18.10911 18.44922,-22.75586 z M 74.46875,495.74219 c -3.978955,0 -7.402546,0.90555 -10.273438,2.71875 -2.820524,1.76283 -4.784514,4.28086 -5.892578,7.55468 l 6.269532,2.49415 c 0.654764,-2.21613 1.814467,-3.95373 3.476562,-5.21289 1.662095,-1.25917 3.675743,-1.88868 6.042969,-1.88868 2.367226,0 4.206096,0.55405 5.515625,1.66211 1.309529,1.0577 1.96289,2.5173 1.96289,4.38086 0,2.36723 -0.981018,4.18029 -2.945312,5.43945 -1.913928,1.2088 -4.684158,1.81446 -8.310547,1.81446 v 4.98633 c 4.029321,0 7.000135,0.62951 8.914063,1.88867 1.913927,1.25916 2.871093,3.22315 2.871093,5.89258 0,2.16576 -0.730777,3.87755 -2.191406,5.13672 -1.460629,1.20879 -3.474276,1.8125 -6.042969,1.8125 -4.784818,0 -8.285826,-2.3155 -10.501953,-6.94922 l -6.042969,2.87109 c 1.460629,3.17309 3.575545,5.61566 6.345704,7.32813 2.820524,1.66209 6.246069,2.49218 10.27539,2.49218 4.835186,0 8.687703,-1.10809 11.558594,-3.32422 2.870891,-2.21612 4.306641,-5.23659 4.306641,-9.06445 0,-2.82052 -0.832046,-5.16378 -2.494141,-7.02734 -1.611728,-1.91393 -3.776302,-3.19875 -6.496094,-3.85352 2.417593,-0.7555 4.355778,-2.01451 5.816406,-3.77734 1.460629,-1.76283 2.191407,-3.85194 2.191407,-6.26953 0,-3.37456 -1.284824,-6.06933 -3.853516,-8.08399 -2.568692,-2.01466 -6.0697,-3.02148 -10.501953,-3.02148 z"
         style="opacity:1;fill:#a52120;fill-opacity:1;stroke:#ff0000;stroke-width:0;stroke-linecap:square;stroke-linejoin:miter;stroke-miterlimit:4;stroke-dasharray:none;stroke-opacity:1"
         inkscape:connector-curvature="0" />
    </g>
  </g>
</svg>
